<?xml version="1.0" encoding="UTF-8" standalone="no"?>
<!-- Created with Inkscape (http://www.inkscape.org/) -->

<svg
   width="93.951172"
   height="52.136719"
   viewBox="0 0 24.857914 13.794507"
   version="1.1"
   id="svg1"
   sodipodi:docname="Unnamed document 1"
   xmlns:inkscape="http://www.inkscape.org/namespaces/inkscape"
   xmlns:sodipodi="http://sodipodi.sourceforge.net/DTD/sodipodi-0.dtd"
   xmlns:xlink="http://www.w3.org/1999/xlink"
   xmlns="http://www.w3.org/2000/svg"
   xmlns:svg="http://www.w3.org/2000/svg">
  <sodipodi:namedview
     id="namedview1"
     pagecolor="#505050"
     bordercolor="#ffffff"
     borderopacity="1"
     inkscape:showpageshadow="0"
     inkscape:pageopacity="0"
     inkscape:pagecheckerboard="1"
     inkscape:deskcolor="#505050"
     inkscape:document-units="px"
     showgrid="true"
     showguides="true">
    <inkscape:grid
       id="grid18"
       units="px"
       originx="-3.61914"
       originy="-25.679688"
       spacingx="0.26458333"
       spacingy="0.26458333"
       empcolor="#0099e5"
       empopacity="0.30196078"
       color="#0099e5"
       opacity="0.14901961"
       empspacing="5"
       dotted="false"
       gridanglex="30"
       gridanglez="30"
       visible="true"
       enabled="false" />
  </sodipodi:namedview>
  <defs
     id="defs1">
    <pattern
       inkscape:collect="always"
       xlink:href="#halftones"
       preserveAspectRatio="xMidYMid"
       id="pattern158"
       patternTransform="scale(0.15)"
       x="0"
       y="0" />
    <pattern
       patternUnits="userSpaceOnUse"
       width="10"
       height="10"
       preserveAspectRatio="xMidYMid"
       style="fill:#000000"
       id="halftones"
       x="0"
       y="0"
       inkscape:label="Halftones"
       inkscape:collect="always"
       inkscape:isstock="true">
      <g
         id="fullPattern"
         style="display:inline"
         transform="scale(0.1)">
        <circle
           style="fill-opacity:1;stroke:none;paint-order:markers fill stroke;stop-color:#000000"
           id="circle10"
           cx="50"
           cy="50"
           r="25" />
        <path
           id="circle37"
           style="paint-order:markers fill stroke"
           d="M 25,0 A 25,25 0 0 1 0,25 25,25 0 0 1 -25,0 25,25 0 0 1 0,-25 25,25 0 0 1 25,0 Z" />
        <path
           id="circle39"
           style="paint-order:markers fill stroke"
           d="M 125,0 A 25,25 0 0 1 100,25 25,25 0 0 1 75,0 25,25 0 0 1 100,-25 25,25 0 0 1 125,0 Z" />
        <path
           id="circle43"
           style="paint-order:markers fill stroke"
           d="M 25,100 A 25,25 0 0 1 0,125 25,25 0 0 1 -25,100 25,25 0 0 1 0,75 25,25 0 0 1 25,100 Z" />
        <path
           id="circle45"
           style="paint-order:markers fill stroke"
           d="m 125,100 a 25,25 0 0 1 -25,25 25,25 0 0 1 -25,-25 25,25 0 0 1 25,-25 25,25 0 0 1 25,25 z" />
      </g>
    </pattern>
  </defs>
  <g
     inkscape:label="OG FIg"
     inkscape:groupmode="layer"
     id="g62"
     style="display:inline"
     transform="translate(-0.95756412,-6.7944174)">
    <g
       id="g158">
      <path
         d="m 25.370027,12.556339 c 6.09e-4,-0.0067 0.0021,-0.01412 0.0026,-0.02067 0.0022,-0.03056 0.0027,-0.05945 10e-4,-0.08578 -0.0017,-0.02634 -0.0054,-0.04993 -0.01292,-0.06976 -0.0075,-0.01984 -0.01845,-0.03597 -0.03359,-0.04703 -0.01514,-0.01106 -0.03475,-0.01705 -0.05943,-0.01705 0.03309,0.06757 0.06792,0.158638 0.102319,0.240295 z"
         style="display:inline;stroke-width:1.03188"
         id="path13"
         inkscape:export-filename="cloud1.svg"
         inkscape:export-xdpi="96"
         inkscape:export-ydpi="96" />
      <path
         id="path11"
         style="display:inline;stroke-width:1.03188"
         d="m 25.370027,12.556339 c -0.0051,0.05565 -0.01323,0.114651 -0.02119,0.172083 -0.0089,0.06433 -0.01663,0.125861 -0.01499,0.175183 1.3e-5,0.129565 -0.0066,0.259513 -0.01964,0.38964 -0.01304,0.130128 -0.03244,0.260622 -0.05788,0.390157 -0.02544,0.129535 -0.05688,0.258235 -0.09405,0.386023 -0.0045,0.01533 -0.01088,0.03017 -0.0155,0.04548 a 3.7533886,3.7533886 0 0 1 -0.01447,0.07286 3.7533886,3.7533886 0 0 1 -0.07958,0.283704 3.7533886,3.7533886 0 0 1 -0.102319,0.276469 3.7533886,3.7533886 0 0 1 -0.12299,0.267684 3.7533886,3.7533886 0 0 1 -0.144177,0.256832 3.7533886,3.7533886 0 0 1 -0.163815,0.245463 3.7533886,3.7533886 0 0 1 -0.182418,0.230993 3.7533886,3.7533886 0 0 1 -0.199987,0.216525 3.7533886,3.7533886 0 0 1 -0.216525,0.199987 3.7533886,3.7533886 0 0 1 -0.174666,0.137976 3.7533886,3.7533886 0 0 1 -0.05684,0.04496 3.7533886,3.7533886 0 0 1 -0.244946,0.163814 3.7533886,3.7533886 0 0 1 -0.256832,0.143661 3.7533886,3.7533886 0 0 1 -0.267684,0.123506 3.7533886,3.7533886 0 0 1 -0.276469,0.101803 3.7533886,3.7533886 0 0 1 -0.283704,0.0801 3.7533886,3.7533886 0 0 1 -0.289388,0.05788 3.7533886,3.7533886 0 0 1 -0.292488,0.03462 3.7533886,3.7533886 0 0 1 -0.294556,0.01137 3.7533886,3.7533886 0 0 1 -0.72502,-0.0801 4.5261412,4.5261412 0 0 1 -0.559656,0.60203 4.5261412,4.5261412 0 0 1 -0.659908,0.490409 4.5261412,4.5261412 0 0 1 -0.737423,0.363286 4.5261412,4.5261412 0 0 1 -0.790649,0.224275 4.5261412,4.5261412 0 0 1 -0.818555,0.077 4.5261412,4.5261412 0 0 1 -0.930175,-0.09922 4.5261412,4.5261412 0 0 1 -0.889869,-0.287837 4.5261412,4.5261412 0 0 1 -0.641304,0.445451 4.5261412,4.5261412 0 0 1 -0.708484,0.328145 4.5261412,4.5261412 0 0 1 -0.754476,0.201538 4.5261412,4.5261412 0 0 1 -0.77773,0.06925 4.5261412,4.5261412 0 0 1 -0.998389,-0.113688 4.5261412,4.5261412 0 0 1 -0.948262,-0.331246 4.5261412,4.5261412 0 0 1 -0.8521448,-0.532267 4.5261412,4.5261412 0 0 1 -0.7136515,-0.706933 4.5261412,4.5261412 0 0 1 -0.1049032,0.0072 4.5261412,4.5261412 0 0 1 -0.806669,-0.07493 A 4.5261412,4.5261412 0 0 1 7.2848266,17.43046 4.5261412,4.5261412 0 0 1 6.5556721,17.07751 4.5261412,4.5261412 0 0 1 5.9009317,16.60002 4.5261412,4.5261412 0 0 1 5.3417927,16.013493 3.0628443,3.0628443 0 0 1 4.8219278,16.158187 3.0628443,3.0628443 0 0 1 4.2850097,16.209863 3.0628443,3.0628443 0 0 1 3.4922933,16.105477 3.0628443,3.0628443 0 0 1 2.8494384,15.839343 c -0.020191,-0.01255 -0.040939,-0.02377 -0.060978,-0.03669 C 2.7167889,15.756443 2.6464916,15.70746 2.5771036,15.656925 2.5077158,15.606391 2.4395516,15.554138 2.3729817,15.499829 2.3064119,15.44552 2.2413785,15.389413 2.1781616,15.331881 2.1071905,15.26729 2.0447204,15.197227 1.9786906,15.129309 1.9270896,15.076229 1.8707998,15.025865 1.8226277,14.971179 1.7677209,14.908849 1.7149642,14.845429 1.6650146,14.781527 1.6150658,14.717617 1.5678786,14.653184 1.5234212,14.588257 1.4789642,14.523327 1.4373112,14.457803 1.398881,14.392403 1.36045,14.327003 1.32533,14.261871 1.2934611,14.196549 c 0.00897,0.09739 0.023668,0.194851 0.043925,0.292489 0.020257,0.09764 0.046204,0.195444 0.076998,0.292489 0.030794,0.09704 0.066388,0.193264 0.1069702,0.288871 0.040582,0.09561 0.08577,0.19038 0.1353923,0.283703 0.049622,0.09332 0.1038335,0.18524 0.1617472,0.275436 0.057914,0.0902 0.1195445,0.178878 0.1850017,0.2651 0.065457,0.08622 0.1349707,0.170261 0.2072224,0.251664 0.072252,0.0814 0.1475278,0.159905 0.2258261,0.235645 0.078298,0.07574 0.1592831,0.148844 0.2428792,0.218074 0.083596,0.06923 0.1697198,0.134495 0.2578654,0.196371 0.088146,0.06188 0.178321,0.119956 0.2702677,0.173632 0.091947,0.05368 0.1856036,0.103164 0.280603,0.147795 0.095,0.04463 0.1915676,0.08463 0.2888713,0.119373 0.097304,0.03474 0.1951793,0.06436 0.2940389,0.08837 0.09886,0.02401 0.1985059,0.04235 0.298173,0.05478 0.099667,0.01243 0.1994804,0.0186 0.2992065,0.0186 0.09027,-6.75e-4 0.1806698,-0.0054 0.2702678,-0.01395 0.089598,-0.0086 0.1787579,-0.02078 0.2671671,-0.03721 0.08841,-0.01643 0.1758122,-0.03682 0.2625163,-0.06098 0.086704,-0.02416 0.1723492,-0.05242 0.2568319,-0.08423 0.053504,0.06728 0.1090057,0.133149 0.1658813,0.196888 0.056876,0.06374 0.115115,0.125406 0.1751831,0.185518 0.060068,0.06011 0.12192,0.118785 0.1850016,0.175183 0.063082,0.0564 0.1273539,0.110701 0.1932699,0.163298 0.065916,0.0526 0.1334835,0.103219 0.2020548,0.151928 0.068572,0.04871 0.138242,0.09531 0.2092896,0.140043 0.1420951,0.08947 0.2888409,0.170858 0.4397664,0.243913 0.1509257,0.07306 0.3062479,0.137842 0.4645711,0.193787 0.079162,0.02797 0.1590363,0.05395 0.2397787,0.07751 0.080743,0.02357 0.1622854,0.04501 0.2444295,0.06408 0.082144,0.01907 0.1646801,0.03564 0.2480469,0.05013 0.083367,0.01449 0.1672539,0.02687 0.2516642,0.03669 0.084411,0.0098 0.16949,0.01715 0.2547648,0.02222 0.085275,0.0051 0.1708717,0.0075 0.2568319,0.0078 0.034994,-0.002 0.069964,-0.0039 0.1049031,-0.0067 0.053563,0.06639 0.1090192,0.130902 0.1658814,0.193787 0.056862,0.06288 0.1151966,0.123641 0.1751831,0.182934 0.059986,0.05929 0.1215498,0.116983 0.1844848,0.172599 0.062935,0.05562 0.1275607,0.109371 0.1932697,0.161231 0.131417,0.10372 0.267819,0.199658 0.409277,0.287838 0.141458,0.08818 0.287605,0.168845 0.4377,0.240812 0.150095,0.07197 0.304142,0.135605 0.46147,0.190686 0.157328,0.05508 0.31795,0.101488 0.481108,0.139009 0.08158,0.01876 0.163723,0.03536 0.246496,0.04961 0.08277,0.01424 0.166322,0.02601 0.250114,0.03566 0.08379,0.0096 0.168063,0.01726 0.252698,0.02222 0.08463,0.005 0.169462,0.0076 0.254765,0.0078 0.131612,-2.88e-4 0.263043,-0.0065 0.393258,-0.01809 0.130212,-0.01163 0.259441,-0.02895 0.387573,-0.05168 0.128132,-0.02273 0.254974,-0.05117 0.380338,-0.08475 0.125364,-0.03358 0.249126,-0.07209 0.371037,-0.116272 0.121911,-0.04418 0.241896,-0.09378 0.359668,-0.148311 0.117772,-0.05453 0.233284,-0.114168 0.346232,-0.1788 0.112948,-0.06463 0.223291,-0.134286 0.330729,-0.208773 0.107438,-0.07449 0.211918,-0.153619 0.313159,-0.237712 0.143332,0.06342 0.289693,0.11886 0.438217,0.166915 0.148522,0.04805 0.299163,0.08849 0.451652,0.120923 0.152486,0.03243 0.306761,0.05684 0.461987,0.07338 0.155225,0.01654 0.311456,0.02545 0.468188,0.02584 0.08726,-2.69e-4 0.17443,-0.0035 0.260966,-0.0088 0.08654,-0.0053 0.172752,-0.01259 0.258383,-0.02274 0.08563,-0.01015 0.170742,-0.02277 0.255281,-0.03772 0.08454,-0.01495 0.168404,-0.03253 0.251664,-0.05219 0.08326,-0.01966 0.165737,-0.04135 0.24753,-0.06563 0.0818,-0.02428 0.162735,-0.05077 0.24288,-0.07958 0.08014,-0.02881 0.159404,-0.06029 0.237711,-0.09353 0.07831,-0.03324 0.155746,-0.06835 0.232027,-0.105937 0.07628,-0.03758 0.151755,-0.07754 0.225826,-0.119372 0.07407,-0.04183 0.146915,-0.08578 0.218592,-0.131775 0.07168,-0.04599 0.141746,-0.09412 0.21084,-0.144177 0.06909,-0.05006 0.13728,-0.102026 0.203605,-0.156063 0.06632,-0.05404 0.130934,-0.110028 0.194303,-0.167949 0.06337,-0.05792 0.125294,-0.117605 0.185518,-0.179317 0.06023,-0.06171 0.118802,-0.125274 0.1757,-0.190686 0.0569,-0.06541 0.111981,-0.132518 0.165365,-0.201538 0.119249,0.02509 0.239724,0.044 0.360701,0.05736 0.12098,0.01337 0.242469,0.02119 0.364319,0.02274 0.129565,-4e-6 0.258407,-0.0077 0.386023,-0.0217 0.127617,-0.01401 0.253942,-0.03478 0.378788,-0.06201 0.124849,-0.02724 0.248227,-0.06058 0.369487,-0.100253 0.12126,-0.03967 0.240749,-0.08563 0.357601,-0.136942 0.116852,-0.05131 0.230991,-0.108362 0.342615,-0.170532 0.111621,-0.06217 0.220503,-0.129302 0.326078,-0.201538 0.105575,-0.07224 0.208251,-0.149476 0.306958,-0.230994 0.09871,-0.08152 0.193719,-0.167338 0.284737,-0.257349 0.09102,-0.09001 0.17794,-0.183923 0.260449,-0.281636 0.08251,-0.09771 0.160397,-0.199229 0.233578,-0.303858 0.07318,-0.104628 0.141607,-0.212739 0.204638,-0.323494 0.06303,-0.110756 0.120537,-0.223937 0.1726,-0.340031 0.05206,-0.116094 0.09874,-0.23489 0.139009,-0.355534 0.04027,-0.120644 0.07414,-0.24353 0.101803,-0.367936 0.02766,-0.124406 0.04882,-0.250375 0.06304,-0.377755 0.01424,-0.127379 0.02172,-0.255941 0.0217,-0.385506 -2e-6,-0.07393 -0.0046,-0.153088 -0.01344,-0.236161 -0.0088,-0.08307 -0.02157,-0.170232 -0.03772,-0.259416 -0.01615,-0.08918 -0.03579,-0.180587 -0.05788,-0.272852 -0.02209,-0.09226 -0.04677,-0.185188 -0.07338,-0.277502 -0.05321,-0.184628 -0.113975,-0.36666 -0.176733,-0.533301 -0.02867,-0.07614 -0.05736,-0.13336 -0.0863,-0.202055 z M 2.409672,15.567525 a 3.0628443,3.0628443 0 0 0 0.022738,0.01705 3.0628443,3.0628443 0 0 1 -0.022738,-0.01705 z" />
      <path
         d="m 25.146785,14.114901 c -0.03391,0.1122 -0.0702,0.223929 -0.112654,0.333829 -0.04824,0.124887 -0.102063,0.24814 -0.160714,0.36897 -0.05865,0.12083 -0.122284,0.239398 -0.190686,0.355017 -0.0684,0.11562 -0.141616,0.228193 -0.219108,0.337447 -0.07749,0.109254 -0.159026,0.215043 -0.244947,0.316777 -0.08592,0.101734 -0.176061,0.199429 -0.269751,0.292488 -0.06516,0.06472 -0.134445,0.123919 -0.203088,0.183968 a 3.7533886,3.7533886 0 0 0 0.174666,-0.137976 3.7533886,3.7533886 0 0 0 0.216525,-0.199987 3.7533886,3.7533886 0 0 0 0.199987,-0.216525 3.7533886,3.7533886 0 0 0 0.182418,-0.230993 3.7533886,3.7533886 0 0 0 0.163815,-0.245463 3.7533886,3.7533886 0 0 0 0.144177,-0.256832 3.7533886,3.7533886 0 0 0 0.12299,-0.267684 3.7533886,3.7533886 0 0 0 0.102319,-0.276469 3.7533886,3.7533886 0 0 0 0.07958,-0.283704 3.7533886,3.7533886 0 0 0 0.01447,-0.07286 z"
         style="display:inline;fill:none;stroke:#000000;stroke-width:0.529167"
         id="path10" />
      <path
         d="M 12.736173,7.0590006 A 3.2272596,3.2272596 0 0 0 11.94449,7.1582193 3.2272596,3.2272596 0 0 0 11.200867,7.4486409 3.2272596,3.2272596 0 0 0 10.551811,7.9121784 3.2272596,3.2272596 0 0 0 10.03608,8.5214436 4.5261412,4.5261412 0 0 0 9.9931884,8.553483 2.9148703,2.9148703 0 0 0 9.4495523,8.222237 2.9148703,2.9148703 0 0 0 8.8470051,8.0165648 2.9148703,2.9148703 0 0 0 8.2144856,7.9468017 2.9148703,2.9148703 0 0 0 7.4269368,8.0573892 2.9148703,2.9148703 0 0 0 6.6988158,8.3762328 2.9148703,2.9148703 0 0 0 6.0838663,8.880078 2.9148703,2.9148703 0 0 0 5.6280802,9.5317178 2.9148703,2.9148703 0 0 0 5.3650471,10.28206 3.0628443,3.0628443 0 0 0 4.8338134,10.134265 a 3.0628443,3.0628443 0 0 0 -0.5488037,-0.05013 3.0628443,3.0628443 0 0 0 -0.7927164,0.104386 3.0628443,3.0628443 0 0 0 -0.738973,0.305925 3.0628443,3.0628443 0 0 0 -0.6340698,0.486792 3.0628443,3.0628443 0 0 0 -0.486792,0.63407 3.0628443,3.0628443 0 0 0 -0.3059245,0.738973 3.0628443,3.0628443 0 0 0 -0.1043864,0.792716 3.0628443,3.0628443 0 0 0 0.1043864,0.792716 3.0628443,3.0628443 0 0 0 0.3059245,0.738457 3.0628443,3.0628443 0 0 0 0.3462321,0.451135 c 0.06603,0.06792 0.1284998,0.137981 0.199471,0.202572 0.063217,0.05753 0.1282502,0.113639 0.1948201,0.167948 0.06657,0.05431 0.134734,0.106562 0.2041219,0.157096 0.069388,0.05053 0.1396854,0.09952 0.2113567,0.145728 0.020039,0.01292 0.040787,0.02414 0.060978,0.03669 a 3.0628443,3.0628443 0 0 0 0.6428549,0.266134 3.0628443,3.0628443 0 0 0 0.7927164,0.104386 3.0628443,3.0628443 0 0 0 0.5369181,-0.05168 3.0628443,3.0628443 0 0 0 0.5198649,-0.144694 4.5261412,4.5261412 0 0 0 0.559139,0.586527 4.5261412,4.5261412 0 0 0 0.6547404,0.47749 4.5261412,4.5261412 0 0 0 0.7291545,0.35295 4.5261412,4.5261412 0 0 0 0.7808309,0.217041 4.5261412,4.5261412 0 0 0 0.806669,0.07493 4.5261412,4.5261412 0 0 0 0.1049032,-0.0072 4.5261412,4.5261412 0 0 0 0.7136515,0.706933 4.5261412,4.5261412 0 0 0 0.8521449,0.532267 4.5261412,4.5261412 0 0 0 0.948262,0.331246 4.5261412,4.5261412 0 0 0 0.998389,0.113688 4.5261412,4.5261412 0 0 0 0.77773,-0.06925 4.5261412,4.5261412 0 0 0 0.754476,-0.201538 4.5261412,4.5261412 0 0 0 0.708484,-0.328145 4.5261412,4.5261412 0 0 0 0.641304,-0.445451 4.5261412,4.5261412 0 0 0 0.889869,0.287837 4.5261412,4.5261412 0 0 0 0.930175,0.09922 4.5261412,4.5261412 0 0 0 0.818555,-0.077 4.5261412,4.5261412 0 0 0 0.790649,-0.224275 4.5261412,4.5261412 0 0 0 0.737423,-0.363286 4.5261412,4.5261412 0 0 0 0.659908,-0.490409 4.5261412,4.5261412 0 0 0 0.559656,-0.60203 3.7533886,3.7533886 0 0 0 0.72502,0.0801 3.7533886,3.7533886 0 0 0 0.294556,-0.01137 3.7533886,3.7533886 0 0 0 0.292488,-0.03462 3.7533886,3.7533886 0 0 0 0.289388,-0.05788 3.7533886,3.7533886 0 0 0 0.283704,-0.0801 3.7533886,3.7533886 0 0 0 0.276469,-0.101803 3.7533886,3.7533886 0 0 0 0.267684,-0.123506 3.7533886,3.7533886 0 0 0 0.256832,-0.143661 3.7533886,3.7533886 0 0 0 0.244946,-0.163814 3.7533886,3.7533886 0 0 0 0.05684,-0.04496 c 0.06864,-0.06005 0.137932,-0.119249 0.203088,-0.183968 0.09369,-0.09306 0.183831,-0.190754 0.269751,-0.292488 0.08592,-0.101734 0.167455,-0.207523 0.244947,-0.316777 0.07749,-0.109254 0.150706,-0.221827 0.219108,-0.337447 0.0684,-0.115619 0.132034,-0.234187 0.190686,-0.355017 0.05865,-0.12083 0.112474,-0.244083 0.160714,-0.36897 0.04245,-0.1099 0.07875,-0.221629 0.112654,-0.333829 a 3.7533886,3.7533886 0 0 0 0.04341,-0.216525 3.7533886,3.7533886 0 0 0 0.03462,-0.292488 3.7533886,3.7533886 0 0 0 0.01137,-0.294556 A 3.7533886,3.7533886 0 0 0 25.142131,12.47626 3.7533886,3.7533886 0 0 0 24.864632,11.683008 3.7533886,3.7533886 0 0 0 24.417114,10.971423 3.7533886,3.7533886 0 0 0 23.822835,10.377144 3.7533886,3.7533886 0 0 0 23.111251,9.9296263 3.7533886,3.7533886 0 0 0 22.318017,9.6521239 3.7533886,3.7533886 0 0 0 21.482926,9.5580728 3.7533886,3.7533886 0 0 0 20.656103,9.6521239 3.7533886,3.7533886 0 0 0 19.870105,9.9265258 2.9148703,2.9148703 0 0 0 19.596736,9.1916869 2.9148703,2.9148703 0 0 0 19.137333,8.5560668 2.9148703,2.9148703 0 0 0 18.524967,8.0656575 2.9148703,2.9148703 0 0 0 17.804598,7.7566324 2.9148703,2.9148703 0 0 0 17.027384,7.6506957 a 2.9148703,2.9148703 0 0 0 -0.632519,0.072347 2.9148703,2.9148703 0 0 0 -0.601514,0.2072225 2.9148703,2.9148703 0 0 0 -0.542086,0.333313 4.5261412,4.5261412 0 0 0 -0.0026,-0.00155 A 3.2272596,3.2272596 0 0 0 14.738635,7.7561156 3.2272596,3.2272596 0 0 0 14.128853,7.3752603 3.2272596,3.2272596 0 0 0 13.450342,7.139099 3.2272596,3.2272596 0 0 0 12.736173,7.0590006 Z"
         style="display:inline;fill:url(#pattern158);fill-opacity:1;stroke:#000000;stroke-width:0.529167;stroke-opacity:1"
         id="path8" />
    </g>
  </g>
  <g
     inkscape:label="OG FIg"
     inkscape:groupmode="layer"
     id="g3"
     style="display:none"
     transform="translate(-0.95756412,-6.7944174)">
    <path
       id="path2"
       style="display:inline;mix-blend-mode:normal;fill:none;stroke:#000000;stroke-width:1.03188;stroke-linecap:butt;stroke-linejoin:miter;stroke-dasharray:none;stroke-dashoffset:0;stroke-opacity:1;paint-order:normal"
       d="m 12.175482,11.079658 a 3.2272596,3.2272596 0 0 0 -2.7000918,1.462443 4.5261412,4.5261412 0 0 0 -0.04289,0.03204 2.9148703,2.9148703 0 0 0 -1.7787035,-0.606682 2.9148703,2.9148703 0 0 0 -2.849438,2.335259 3.0628443,3.0628443 0 0 0 -1.080038,-0.197921 3.0628443,3.0628443 0 0 0 -3.06286222,3.062861 3.0628443,3.0628443 0 0 0 3.06286222,3.062862 3.0628443,3.0628443 0 0 0 1.056783,-0.196371 4.5261412,4.5261412 0 0 0 3.5305341,1.708939 4.5261412,4.5261412 0 0 0 0.104903,-0.0072 4.5261412,4.5261412 0 0 0 3.5124462,1.684135 4.5261412,4.5261412 0 0 0 2.881994,-1.044381 4.5261412,4.5261412 0 0 0 1.820044,0.387056 4.5261412,4.5261412 0 0 0 3.566191,-1.756997 3.7533886,3.7533886 0 0 0 0.72502,0.0801 3.7533886,3.7533886 0 0 0 3.753259,-3.753777 3.7533886,3.7533886 0 0 0 -3.753259,-3.753257 3.7533886,3.7533886 0 0 0 -1.612821,0.368453 2.9148703,2.9148703 0 0 0 -2.842721,-2.275831 2.9148703,2.9148703 0 0 0 -1.776119,0.612883 4.5261412,4.5261412 0 0 0 -0.0026,-0.0015 3.2272596,3.2272596 0 0 0 -2.512508,-1.203028 z"
       inkscape:export-filename="cloud1.svg"
       inkscape:export-xdpi="90"
       inkscape:export-ydpi="90"
       inkscape:label="Shadow"
       transform="translate(0.74835466,-3.3208237)" />
    <path
       id="path3"
       style="display:inline;fill:none;stroke:#000000;stroke-width:0.529167;stroke-linecap:butt;stroke-linejoin:miter;stroke-dasharray:none;stroke-dashoffset:0;stroke-opacity:1;paint-order:normal"
       d="M 12.736172,7.0589839 A 3.2272596,3.2272596 0 0 0 10.036079,8.521427 4.5261412,4.5261412 0 0 0 9.993189,8.553466 2.9148703,2.9148703 0 0 0 8.2144859,7.9467847 a 2.9148703,2.9148703 0 0 0 -2.849438,2.3352583 3.0628443,3.0628443 0 0 0 -1.080038,-0.197921 3.0628443,3.0628443 0 0 0 -3.062862,3.062861 3.0628443,3.0628443 0 0 0 3.062862,3.062862 3.0628443,3.0628443 0 0 0 1.056783,-0.19637 4.5261412,4.5261412 0 0 0 3.5305341,1.708939 4.5261412,4.5261412 0 0 0 0.104903,-0.0072 4.5261412,4.5261412 0 0 0 3.512447,1.684135 4.5261412,4.5261412 0 0 0 2.881994,-1.044381 4.5261412,4.5261412 0 0 0 1.820044,0.387056 4.5261412,4.5261412 0 0 0 3.566191,-1.756998 3.7533886,3.7533886 0 0 0 0.72502,0.0801 3.7533886,3.7533886 0 0 0 3.753259,-3.753776 3.7533886,3.7533886 0 0 0 -3.753259,-3.7532579 3.7533886,3.7533886 0 0 0 -1.612821,0.368453 2.9148703,2.9148703 0 0 0 -2.842721,-2.2758303 2.9148703,2.9148703 0 0 0 -1.776119,0.6128825 4.5261412,4.5261412 0 0 0 -0.0026,-0.00155 3.2272596,3.2272596 0 0 0 -2.512508,-1.2030274 z"
       inkscape:export-filename="cloud1.svg"
       inkscape:export-xdpi="90"
       inkscape:export-ydpi="90" />
  </g>
</svg>
