<?xml version="1.0" encoding="UTF-8" standalone="no"?>
<!-- Created with Inkscape (http://www.inkscape.org/) -->

<svg
   width="100.48117"
   height="100.48123"
   viewBox="0 0 26.585643 26.585659"
   version="1.1"
   id="svg1"
   inkscape:version="1.3 (0e150ed6c4, 2023-07-21)"
   sodipodi:docname="sun.svg"
   inkscape:export-filename="sun.svg"
   inkscape:export-xdpi="96"
   inkscape:export-ydpi="96"
   xmlns:inkscape="http://www.inkscape.org/namespaces/inkscape"
   xmlns:sodipodi="http://sodipodi.sourceforge.net/DTD/sodipodi-0.dtd"
   xmlns:xlink="http://www.w3.org/1999/xlink"
   xmlns="http://www.w3.org/2000/svg"
   xmlns:svg="http://www.w3.org/2000/svg">
  <sodipodi:namedview
     id="namedview1"
     pagecolor="#ffffff"
     bordercolor="#000000"
     borderopacity="0.25"
     inkscape:showpageshadow="2"
     inkscape:pageopacity="0.0"
     inkscape:pagecheckerboard="true"
     inkscape:deskcolor="#d1d1d1"
     inkscape:document-units="px"
     inkscape:zoom="8.1535024"
     inkscape:cx="39.430908"
     inkscape:cy="54.148509"
     inkscape:window-width="2558"
     inkscape:window-height="1351"
     inkscape:window-x="1272"
     inkscape:window-y="0"
     inkscape:window-maximized="0"
     inkscape:current-layer="layer1" />
  <defs
     id="defs1">
    <pattern
       inkscape:collect="always"
       xlink:href="#pattern13"
       id="pattern1"
       patternTransform="matrix(0.4330127,0.25,-0.45,0.77942286,0,0)"
       x="0"
       y="0"
       preserveAspectRatio="none" />
    <pattern
       inkscape:collect="always"
       xlink:href="#pattern13"
       id="pattern14"
       patternTransform="matrix(0.09659258,0.0258819,-0.0517638,0.19318517,0,0)"
       x="0"
       y="0"
       preserveAspectRatio="none" />
    <pattern
       inkscape:collect="always"
       patternUnits="userSpaceOnUse"
       width="30.066020"
       height="5.1805778"
       id="pattern13"
       inkscape:stockid="Wavy"
       inkscape:isstock="true"
       inkscape:label="Wavy">
      <path
         style="stroke:none;"
         d="M 7.597,0.061 C 5.079,-0.187 2.656,0.302 -0.01,1.788 L -0.01,3.061 C 2.773,1.431 5.173,1.052 7.472,1.280 C 9.770,1.508 11.969,2.361 14.253,3.218 C 18.820,4.931 23.804,6.676 30.066,3.061 L 30.062,1.788 C 23.622,5.497 19.246,3.770 14.691,2.061 C 12.413,1.207 10.115,0.311 7.597,0.061 z "
         id="path12" />
    </pattern>
  </defs>
  <g
     inkscape:label="Sun"
     inkscape:groupmode="layer"
     id="layer1"
     transform="translate(0.06366285,0.06364672)">
    <path
       id="path1"
       style="display:none;fill:url(#pattern14);fill-opacity:1;stroke:#000000;stroke-width:0.264583"
       d="M 13.257589,0.19585368 10.17974,5.3898518 h 6.155697 z M 4.0333455,3.9930379 5.5298949,9.8417764 9.8826008,5.4895873 Z M 22.465295,4.0333455 16.61604,5.5298949 20.968746,9.8826008 Z M 13.229166,5.7552042 A 7.473783,7.473783 0 0 0 5.7552042,13.229166 7.473783,7.473783 0 0 0 13.229166,20.703129 7.473783,7.473783 0 0 0 20.703129,13.229166 7.473783,7.473783 0 0 0 13.229166,5.7552042 Z M 5.3898518,10.122896 0.19585368,13.200744 5.3898518,16.278076 Z m 15.6786292,0.05684 v 6.155697 l 5.193998,-3.077848 z m -15.5788937,6.395992 -1.4965494,5.849256 5.8487385,-1.49655 z m 15.4388507,0.04031 -4.352706,4.352706 5.849256,1.496549 z m -10.805542,4.451924 3.077848,5.194515 3.077332,-5.194515 z" />
    <path
       id="path3"
       style="display:inline;fill:#ffff00;fill-opacity:1;stroke:#000000;stroke-width:0.264583"
       d="M 13.257589,0.19585368 10.17974,5.3898518 h 6.155697 z M 4.0333455,3.9930379 5.5298949,9.8417764 9.8826008,5.4895873 Z M 22.465295,4.0333455 16.61604,5.5298949 20.968746,9.8826008 Z M 13.229166,5.7552042 A 7.473783,7.473783 0 0 0 5.7552042,13.229166 7.473783,7.473783 0 0 0 13.229166,20.703129 7.473783,7.473783 0 0 0 20.703129,13.229166 7.473783,7.473783 0 0 0 13.229166,5.7552042 Z M 5.3898518,10.122896 0.19585368,13.200744 5.3898518,16.278076 Z m 15.6786292,0.05684 v 6.155697 l 5.193998,-3.077848 z m -15.5788937,6.395992 -1.4965494,5.849256 5.8487385,-1.49655 z m 15.4388507,0.04031 -4.352706,4.352706 5.849256,1.496549 z m -10.805542,4.451924 3.077848,5.194515 3.077332,-5.194515 z"
       inkscape:export-filename="sun\sun.svg"
       inkscape:export-xdpi="96"
       inkscape:export-ydpi="96"
       inkscape:label="og" />
    <rect
       style="display:none;fill:url(#pattern1);fill-opacity:1;stroke-width:0.264583"
       id="rect1"
       width="26.585646"
       height="26.585659"
       x="-0.063662849"
       y="-0.063646719"
       inkscape:export-filename="sun_background.svg"
       inkscape:export-xdpi="96"
       inkscape:export-ydpi="96" />
  </g>
</svg>
