<?xml version="1.0" encoding="UTF-8" standalone="no"?>
<!-- Created with Inkscape (http://www.inkscape.org/) -->

<svg
   width="100"
   height="100"
   viewBox="0 0 100 100"
   id="SVGRoot"
   version="1.1"
   enable-background="new"
   inkscape:version="1.2-dev (0f7da565d9, 2021-10-29)"
   sodipodi:docname="seamless_pattern.svg"
   inkscape:export-filename="sun_background.svg"
   inkscape:export-xdpi="96"
   inkscape:export-ydpi="96"
   xmlns:inkscape="http://www.inkscape.org/namespaces/inkscape"
   xmlns:sodipodi="http://sodipodi.sourceforge.net/DTD/sodipodi-0.dtd"
   xmlns:xlink="http://www.w3.org/1999/xlink"
   xmlns="http://www.w3.org/2000/svg"
   xmlns:svg="http://www.w3.org/2000/svg">
  <defs
     id="defs4787">
    <clipPath
       clipPathUnits="userSpaceOnUse"
       id="patternClipPath">
      <rect
         y="0"
         x="0"
         height="100"
         width="100"
         id="clipPathRect"
         style="color:#000000;display:inline;overflow:visible;visibility:visible;opacity:1;fill:#ffff00;fill-opacity:1;fill-rule:nonzero;stroke:none;stroke-width:20;stroke-linecap:square;stroke-linejoin:miter;stroke-miterlimit:4;stroke-dasharray:none;stroke-dashoffset:1.0989;stroke-opacity:1;marker:none;enable-background:accumulate" />
    </clipPath>
    <marker
       inkscape:stockid="Arrow2Mend"
       orient="auto"
       refY="0"
       refX="0"
       id="Arrow2Mend"
       style="overflow:visible"
       inkscape:isstock="true">
      <path
         id="path19572"
         style="fill:#000000;fill-opacity:1;fill-rule:evenodd;stroke:#000000;stroke-width:0.625;stroke-linejoin:round;stroke-opacity:1"
         d="M 8.7185878,4.0337352 -2.2072895,0.01601326 8.7185884,-4.0017078 c -1.7454984,2.3720609 -1.7354408,5.6174519 -6e-7,8.035443 z"
         transform="scale(-0.6)" />
    </marker>
  </defs>
  <sodipodi:namedview
     id="base"
     pagecolor="#ffffff"
     bordercolor="#666666"
     borderopacity="1.0"
     inkscape:pageopacity="0"
     inkscape:pageshadow="2"
     inkscape:zoom="1.0"
     inkscape:cx="275.0"
     inkscape:cy="0"
     inkscape:document-units="px"
     inkscape:current-layer="infoGroup"
     showgrid="true"
     inkscape:pagecheckerboard="true"
     inkscape:window-width="1920"
     inkscape:window-height="1011"
     inkscape:window-x="0"
     inkscape:window-y="32"
     inkscape:window-maximized="1"
     inkscape:blackoutopacity="0.0"
     showborder="true"
     inkscape:showpageshadow="true"
     borderlayer="false"
     inkscape:deskcolor="#d1d1d1">
    <inkscape:grid
       id="grid3"
       units="px"
       originx="0"
       originy="0"
       spacingx="1"
       spacingy="1"
       empcolor="#0099e5"
       empopacity="0.30196078"
       color="#0099e5"
       opacity="0.14901961"
       empspacing="5"
       dotted="false"
       gridanglex="30"
       gridanglez="30"
       visible="true" />
  </sodipodi:namedview>
  <g
     inkscape:groupmode="layer"
     id="patternLayer"
     inkscape:label="Pattern"
     style="display:inline">
    <use
       style="opacity:0.3"
       height="100%"
       width="100%"
       id="phantomBottom"
       xlink:href="#designBottom"
       y="0"
       x="0"
       sodipodi:insensitive="true" />
    <g
       id="infoGroup"
       sodipodi:insensitive="true">
      <rect
         style="opacity:1;fill:#ffffff;fill-opacity:1;fill-rule:evenodd;stroke:none;stroke-width:76.9908;stroke-linecap:round;stroke-linejoin:round;stroke-miterlimit:4;stroke-dasharray:none;stroke-dashoffset:0;stroke-opacity:1;paint-order:normal"
         id="rect4130"
         width="526.66248"
         height="360.00635"
         x="-348.83969"
         y="-380.86212" />
      <text
         xml:space="preserve"
         style="font-style:normal;font-variant:normal;font-weight:normal;font-stretch:normal;line-height:0%;font-family:sans-serif;-inkscape-font-specification:Verdana;letter-spacing:0px;word-spacing:0px;fill:#000000;fill-opacity:1;stroke:none"
         x="-326.82172"
         y="-349.80621"
         id="text8664"><tspan
           style="font-style:normal;font-variant:normal;font-weight:bold;font-stretch:normal;font-size:23.6686px;line-height:1.25;font-family:sans-serif;-inkscape-font-specification:'sans-serif Bold'"
           sodipodi:role="line"
           id="tspan8666"
           x="-326.82172"
           y="-349.80621">Seamless pattern</tspan></text>
      <flowRoot
         xml:space="preserve"
         id="infoText"
         style="font-style:normal;font-variant:normal;font-weight:normal;font-stretch:normal;line-height:0.01%;font-family:sans-serif;-inkscape-font-specification:sans-serif;letter-spacing:0px;word-spacing:0px;fill:#000000;fill-opacity:1;stroke:none"
         transform="translate(-709.3014,-231.7039)"><flowRegion
           id="flowRegion11597"><rect
             ry="0.97061312"
             id="rect11599"
             width="491.7114"
             height="324.99371"
             x="383.75671"
             y="-110.4523"
             style="font-style:normal;font-variant:normal;font-weight:normal;font-stretch:normal;font-size:13.75px;font-family:sans-serif;-inkscape-font-specification:sans-serif" /></flowRegion><flowPara
           style="font-style:normal;font-variant:normal;font-weight:normal;font-stretch:normal;font-size:12.5px;line-height:1.25;font-family:Cantarell;-inkscape-font-specification:Cantarell"
           id="flowPara6756">Use the layers &quot;<flowSpan
   style="font-style:normal;font-variant:normal;font-weight:bold;font-stretch:normal;font-family:Cantarell;-inkscape-font-specification:'Cantarell Bold'"
   id="flowSpan7476">Pattern Foreground</flowSpan>&quot; and &quot;<flowSpan
   style="font-style:normal;font-variant:normal;font-weight:bold;font-stretch:normal;font-family:Cantarell;-inkscape-font-specification:'Cantarell Bold'"
   id="flowSpan7478">Pattern Background</flowSpan>&quot; on the pattern page to create your design. The separation into two layers will make it easier for you to create and edit overlapping content like a foreground drawing with a background fill.</flowPara><flowPara
           style="font-style:normal;font-variant:normal;font-weight:normal;font-stretch:normal;font-size:12.5px;line-height:1.25;font-family:Cantarell;-inkscape-font-specification:Cantarell"
           id="flowPara7456"> </flowPara><flowPara
           style="font-style:normal;font-variant:normal;font-weight:normal;font-stretch:normal;font-size:12.5px;line-height:1.25;font-family:Cantarell;-inkscape-font-specification:Cantarell"
           id="flowPara7458">The layer named &quot;<flowSpan
   style="font-style:normal;font-variant:normal;font-weight:bold;font-stretch:normal;font-family:Cantarell;-inkscape-font-specification:'Cantarell Bold'"
   id="flowSpan7480">Pattern</flowSpan>&quot; is for using the seamless pattern, copying it to other documents, adding opacity etc. </flowPara><flowPara
           style="font-style:normal;font-variant:normal;font-weight:normal;font-stretch:normal;font-size:12.5px;line-height:1.25;font-family:Cantarell;-inkscape-font-specification:Cantarell"
           id="flowPara7460">Select the group on the page, and use <flowSpan
   style="font-style:normal;font-variant:normal;font-weight:bold;font-stretch:normal;font-family:Cantarell;-inkscape-font-specification:'Cantarell Bold'"
   id="flowSpan7484">Object-&gt;Pattern-&gt;Objects to Pattern</flowSpan> to convert your creation into a fill pattern.</flowPara><flowPara
           style="font-style:normal;font-variant:normal;font-weight:normal;font-stretch:normal;font-size:12.5px;line-height:1.25;font-family:Cantarell;-inkscape-font-specification:Cantarell"
           id="flowPara7462"> </flowPara><flowPara
           style="font-style:normal;font-variant:normal;font-weight:normal;font-stretch:normal;font-size:12.5px;line-height:1.25;font-family:Cantarell;-inkscape-font-specification:Cantarell"
           id="flowPara7464">The layer &quot;<flowSpan
   style="font-style:normal;font-variant:normal;font-weight:bold;font-stretch:normal;font-family:Cantarell;-inkscape-font-specification:'Cantarell Bold'"
   id="flowSpan7482">Preview Background</flowSpan>&quot; provides an easy way to preview your creation if it contains transparency.</flowPara><flowPara
           style="font-style:normal;font-variant:normal;font-weight:normal;font-stretch:normal;font-size:12.5px;line-height:1.25;font-family:Cantarell;-inkscape-font-specification:Cantarell"
           id="flowPara7466">Changing this layer's visibility will not alter the pattern.</flowPara><flowPara
           style="font-style:normal;font-variant:normal;font-weight:normal;font-stretch:normal;font-size:12.5px;line-height:1.25;font-family:Cantarell;-inkscape-font-specification:Cantarell"
           id="flowPara7468"> </flowPara><flowPara
           style="font-style:normal;font-variant:normal;font-weight:normal;font-stretch:normal;font-size:12.5px;line-height:1.25;font-family:Cantarell;-inkscape-font-specification:Cantarell"
           id="flowPara7470">If an object is moved outside the pattern/page limits, it will be difficult to select it. </flowPara><flowPara
           style="font-style:normal;font-variant:normal;font-weight:normal;font-stretch:normal;font-size:12.5px;line-height:1.25;font-family:Cantarell;-inkscape-font-specification:Cantarell"
           id="flowPara7472">To move it back onto the page, select the object using the rubberband selection (click and drag a selection box) with the selection tool.</flowPara><flowPara
           style="font-style:normal;font-variant:normal;font-weight:normal;font-stretch:normal;font-size:12.5px;line-height:1.25;font-family:Cantarell;-inkscape-font-specification:Cantarell"
           id="flowPara7474">Then move it back onto the page, using the arrow keys or the &quot;Align and Distribute&quot; dialog (Shift+Ctrl+A).</flowPara></flowRoot>
      <path
         sodipodi:nodetypes="cccc"
         inkscape:connector-curvature="0"
         id="path19539"
         d="m -354.4906,-359.49 h -6.1704 V 51.51566 h 229.6052"
         style="color:#000000;text-decoration:none;text-decoration-line:none;display:inline;overflow:visible;visibility:visible;fill:none;stroke:#000000;stroke-width:3.77953;stroke-linecap:butt;stroke-linejoin:miter;stroke-miterlimit:4;stroke-dasharray:none;stroke-dashoffset:0;stroke-opacity:1;marker:none;marker-end:url(#Arrow2Mend);enable-background:accumulate" />
    </g>
    <g
       inkscape:label="Helper Layer (don't use)"
       clip-path="url(#patternClipPath)"
       id="fullPattern"
       style="display:inline">
      <g
         inkscape:groupmode="layer"
         id="designBottom"
         inkscape:label="Pattern Background">
        <path
           id="path18"
           style="fill:none;fill-opacity:0.499329;stroke:#000000;stroke-width:1.05409"
           d="m 66.224725,10 c 0,0 7.777778,-9.0000008 16.666667,0 8.888888,9 16.666666,0 16.666666,0 m -66.666667,0 c 0,0 7.777778,-9.00000003 16.666667,0 8.888889,9 16.666667,0 16.666667,0 m -66.66666677,0 c 0,0 7.77777777,-9.00000003 16.66666677,0 8.888889,9 16.666666,0 16.666666,0 m -33.33333277,0 c 0,0 7.77777777,-9.00000003 16.66666677,0 8.888889,9 16.666666,0 16.666666,0 m 33.333334,8.22 c 0,0 7.777778,-9.0000004 16.666667,0 8.888888,9 16.666666,0 16.666666,0 m -66.666667,0 c 0,0 7.777778,-8.9999997 16.666667,0 8.888889,9 16.666667,0 16.666667,0 m -66.66666677,0 c 0,0 7.77777777,-8.9999997 16.66666677,0 8.888889,9 16.666666,0 16.666666,0 m -33.33333277,0 c 0,0 7.77777777,-8.9999997 16.66666677,0 8.888889,9 16.666666,0 16.666666,0 m 33.333334,8.220001 c 0,0 7.777778,-9.000001 16.666667,0 8.888888,9 16.666666,0 16.666666,0 m -66.666667,0 c 0,0 7.777778,-9 16.666667,0 8.888889,9 16.666667,0 16.666667,0 m -66.66666677,0 c 0,0 7.77777777,-9 16.66666677,0 8.888889,9 16.666666,0 16.666666,0 m -33.33333277,0 c 0,0 7.77777777,-9 16.66666677,0 8.888889,9 16.666666,0 16.666666,0 m 33.333334,8.22 c 0,0 7.777778,-9.000001 16.666667,0 8.888888,9 16.666666,0 16.666666,0 m -66.666667,0 c 0,0 7.777778,-9 16.666667,0 8.888889,9 16.666667,0 16.666667,0 m -66.66666677,0 c 0,0 7.77777777,-9 16.66666677,0 8.888889,9 16.666666,0 16.666666,0 m -33.33333277,0 c 0,0 7.77777777,-9 16.66666677,0 8.888889,9 16.666666,0 16.666666,0 m 33.333334,8.22 c 0,0 7.777778,-9 16.666667,0 8.888888,9 16.666666,0 16.666666,0 m -66.666667,0 c 0,0 7.777778,-9 16.666667,0 8.888889,9 16.666667,0 16.666667,0 m -66.66666677,0 c 0,0 7.77777777,-9 16.66666677,0 8.888889,9 16.666666,0 16.666666,0 m -33.33333277,0 c 0,0 7.77777777,-9 16.66666677,0 8.888889,9 16.666666,0 16.666666,0 m 33.333334,8.220001 c 0,0 7.777778,-9.000001 16.666667,0 8.888888,9 16.666666,0 16.666666,0 m -66.666667,0 c 0,0 7.777778,-9 16.666667,0 8.888889,9 16.666667,0 16.666667,0 m -66.66666677,0 c 0,0 7.77777777,-9 16.66666677,0 8.888889,9 16.666666,0 16.666666,0 m -33.33333277,0 c 0,0 7.77777777,-9 16.66666677,0 8.888889,9 16.666666,0 16.666666,0 m 33.333334,8.22 c 0,0 7.777778,-9.000001 16.666667,0 8.888888,9 16.666666,0 16.666666,0 m -66.666667,0 c 0,0 7.777778,-9 16.666667,0 8.888889,9 16.666667,0 16.666667,0 m -66.66666677,0 c 0,0 7.77777777,-9 16.66666677,0 8.888889,9 16.666666,0 16.666666,0 m -33.33333277,0 c 0,0 7.77777777,-9 16.66666677,0 8.888889,9 16.666666,0 16.666666,0 m 33.333334,8.22 c 0,0 7.777778,-9 16.666667,0 8.888888,9 16.666666,0 16.666666,0 m -66.666667,0 c 0,0 7.777778,-9 16.666667,0 8.888889,9 16.666667,0 16.666667,0 m -66.66666677,0 c 0,0 7.77777777,-9 16.66666677,0 8.888889,9 16.666666,0 16.666666,0 m -33.33333277,0 c 0,0 7.77777777,-9 16.66666677,0 8.888889,9 16.666666,0 16.666666,0 m 33.333334,8.220001 c 0,0 7.777778,-9.000001 16.666667,0 8.888888,9 16.666666,0 16.666666,0 m -66.666667,0 c 0,0 7.777778,-9 16.666667,0 8.888889,9 16.666667,0 16.666667,0 m -66.66666677,0 c 0,0 7.77777777,-9 16.66666677,0 8.888889,9 16.666666,0 16.666666,0 m -33.33333277,0 c 0,0 7.77777777,-9 16.66666677,0 8.888889,9 16.666666,0 16.666666,0 m 33.333334,8.22 c 0,0 7.777778,-9.000001 16.666667,0 8.888888,9 16.666666,0 16.666666,0 m -66.666667,0 c 0,0 7.777778,-9 16.666667,0 8.888889,9 16.666667,0 16.666667,0 m -66.66666677,0 c 0,0 7.77777777,-9 16.66666677,0 8.888889,9 16.666666,0 16.666666,0 m -33.33333277,0 c 0,0 7.77777777,-9 16.66666677,0 8.888889,9 16.666666,0 16.666666,0 m 33.333334,8.220001 c 0,0 7.777778,-9.000001 16.666667,0 8.888888,8.999996 16.666666,0 16.666666,0 m -66.666667,0 c 0,0 7.777778,-9 16.666667,0 8.888889,8.999996 16.666667,0 16.666667,0 m -66.66666677,0 c 0,0 7.77777777,-9 16.66666677,0 8.888889,8.999996 16.666666,0 16.666666,0 m -33.33333277,0 c 0,0 7.77777777,-9 16.66666677,0 8.888889,8.999996 16.666666,0 16.666666,0 M 66.224725,100.42 c 0,0 7.777778,-8.999997 16.666667,0 8.888888,9 16.666666,0 16.666666,0 m -66.666667,0 c 0,0 7.777778,-8.999996 16.666667,0 8.888889,9 16.666667,0 16.666667,0 m -66.66666677,0 c 0,0 7.77777777,-8.999996 16.66666677,0 8.888889,9 16.666666,0 16.666666,0 m -33.33333277,0 c 0,0 7.77777777,-8.999996 16.66666677,0 8.888889,9 16.666666,0 16.666666,0"
           transform="translate(-0.558058,-5)" />
      </g>
      <g
         inkscape:groupmode="layer"
         id="designTop"
         inkscape:label="Pattern Foreground" />
      <g
         id="designBottomGenerator"
         sodipodi:insensitive="true">
        <use
           height="100%"
           width="100%"
           id="bottom1"
           transform="translate(-100,-100)"
           xlink:href="#designBottom"
           y="0"
           x="0" />
        <use
           height="100%"
           width="100%"
           id="bottom2"
           transform="translate(0,-100)"
           xlink:href="#designBottom"
           y="0"
           x="0" />
        <use
           height="100%"
           width="100%"
           id="bottom3"
           transform="translate(100,-100)"
           xlink:href="#designBottom"
           y="0"
           x="0" />
        <use
           height="100%"
           width="100%"
           id="bottom4"
           transform="translate(-100)"
           xlink:href="#designBottom"
           y="0"
           x="0" />
        <use
           height="100%"
           width="100%"
           id="bottom5"
           xlink:href="#designBottom"
           y="0"
           x="0" />
        <use
           height="100%"
           width="100%"
           id="bottom6"
           transform="translate(100)"
           xlink:href="#designBottom"
           y="0"
           x="0" />
        <use
           height="100%"
           width="100%"
           id="bottom7"
           transform="translate(-100,100)"
           xlink:href="#designBottom"
           y="0"
           x="0" />
        <use
           height="100%"
           width="100%"
           id="bottom8"
           transform="translate(0,100)"
           xlink:href="#designBottom"
           y="0"
           x="0" />
        <use
           transform="translate(100,100)"
           height="100%"
           width="100%"
           id="bottom9"
           xlink:href="#designBottom"
           y="0"
           x="0" />
      </g>
      <g
         id="designTopGenerator"
         sodipodi:insensitive="true">
        <use
           height="100%"
           width="100%"
           id="top1"
           transform="translate(-100,-100)"
           xlink:href="#designTop"
           y="0"
           x="0" />
        <use
           height="100%"
           width="100%"
           id="top2"
           transform="translate(0,-100)"
           xlink:href="#designTop"
           y="0"
           x="0" />
        <use
           height="100%"
           width="100%"
           id="top3"
           transform="translate(100,-100)"
           xlink:href="#designTop"
           y="0"
           x="0" />
        <use
           height="100%"
           width="100%"
           id="top4"
           transform="translate(-100)"
           xlink:href="#designTop"
           y="0"
           x="0" />
        <use
           height="100%"
           width="100%"
           id="top5"
           xlink:href="#designTop"
           y="0"
           x="0" />
        <use
           height="100%"
           width="100%"
           id="top6"
           transform="translate(100)"
           xlink:href="#designTop"
           y="0"
           x="0" />
        <use
           height="100%"
           width="100%"
           id="top7"
           transform="translate(-100,100)"
           xlink:href="#designTop"
           y="0"
           x="0" />
        <use
           height="100%"
           width="100%"
           id="top8"
           transform="translate(0,100)"
           xlink:href="#designTop"
           y="0"
           x="0" />
        <use
           transform="translate(100,100)"
           height="100%"
           width="100%"
           id="top9"
           xlink:href="#designTop"
           y="0"
           x="0" />
      </g>
    </g>
  </g>
  <inkscape:_templateinfo
     id="_templateinfo10">
    <inkscape:_name
       id="_name12">Seamless Pattern</inkscape:_name>
    <inkscape:_shortdesc
       id="_shortdesc14">Seamless Pattern</inkscape:_shortdesc>
    <inkscape:_keywords
       id="_keywords16">Seamless Pattern</inkscape:_keywords>
  </inkscape:_templateinfo>
</svg>
